<svg width="50" height="50" viewBox="0 0 50 50" fill="none" xmlns="http://www.w3.org/2000/svg">
<path d="M0 10C0 4.47715 4.47715 0 10 0H40C45.5228 0 50 4.47715 50 10V40C50 45.5228 45.5228 50 40 50H10C4.47715 50 0 45.5228 0 40V10Z" fill="#5C3D2E"/>
<path d="M20.7143 18.75V16C20.7143 15.4033 20.9401 14.831 21.3419 14.409C21.7438 13.9871 22.2888 13.75 22.8571 13.75H27.1429C27.7112 13.75 28.2562 13.9871 28.6581 14.409C29.0599 14.831 29.2857 15.4033 29.2857 16V18.75M33.75 18.75L32.5 34C32.5 34.5967 32.2742 35.169 31.8724 35.591C31.4705 36.0129 30.9255 36.25 30.3571 36.25H19.6429C19.0745 36.25 18.5295 36.0129 18.1276 35.591C17.7258 35.169 17.5 34.5967 17.5 34L16.25 18.75H33.75Z" stroke="white" stroke-width="2" stroke-linecap="round" stroke-linejoin="round"/>
<path d="M15 18.75H17.2222H35" stroke="white" stroke-width="2" stroke-linecap="round" stroke-linejoin="round"/>
<path d="M22.5 23.75V30" stroke="white" stroke-width="2" stroke-linecap="round" stroke-linejoin="round"/>
<path d="M27.5 23.75V30" stroke="white" stroke-width="2" stroke-linecap="round" stroke-linejoin="round"/>
</svg>
