<svg width="50" height="50" viewBox="0 0 50 50" fill="none" xmlns="http://www.w3.org/2000/svg">
<path d="M0 10C0 4.47715 4.47715 0 10 0H40C45.5228 0 50 4.47715 50 10V40C50 45.5228 45.5228 50 40 50H10C4.47715 50 0 45.5228 0 40V10Z" fill="#5C3D2E"/>
<path d="M25 35H35" stroke="white" stroke-width="2" stroke-linecap="round" stroke-linejoin="round"/>
<path d="M30.1298 15.8356C30.3947 15.5707 30.7092 15.3605 31.0553 15.2172C31.4015 15.0738 31.7725 15 32.1471 15C32.5217 15 32.8927 15.0738 33.2389 15.2172C33.585 15.3605 33.8995 15.5707 34.1644 15.8356C34.4293 16.1005 34.6395 16.415 34.7828 16.7611C34.9262 17.1073 35 17.4783 35 17.8529C35 18.2275 34.9262 18.5985 34.7828 18.9447C34.6395 19.2908 34.4293 19.6053 34.1644 19.8702L20.5476 33.487L15 35L16.513 29.4524L30.1298 15.8356Z" stroke="white" stroke-width="2" stroke-linecap="round" stroke-linejoin="round"/>
</svg>
